<svg xmlns="http://www.w3.org/2000/svg" viewBox="0 0 700 480.26"><g id="Layer_2" data-name="Layer 2"><g id="Layer_1-2" data-name="Layer 1"><path d="M605,295.21c-2.7-1.78-3.07-15.32-3.13-26.38V250.34c0-17.43,0-20.65.3-24.31.29-4,1.48-6,5.51-6.55a49,49,0,0,1,5.82-.34c1.8,0,2.69-.24,2.69-1s-1-1-3.13-1c-2.62,0-6.25.08-9.8.15l-12.1.19c-4.57-.07-12.63-.34-18.82-.34-2.24,0-3.29.24-3.29,1s.9,1,2.53,1a27.61,27.61,0,0,1,4.93.34c4.93.8,6.11,2.64,6.41,6.55.3,3.66.3,6.88.3,24.31v19.77h0c0,6.83-.19,21.4-.72,24.87-.6,3.32-1.34,5.85-4.32,6.31a31.53,31.53,0,0,1-5.37.46c-1.8,0-2.39.34-2.39.92,0,.8,1,1.14,3,1.14,6,0,15.36-.34,18.8-.34,7.42,0,14,.26,22.94.46l7.74.15c3.77,0,8,.07,12.72.07,7.74,0,8.5-.56,9.39-3.09,1.19-3.34,2.24-11.94,2.24-13.2s-.15-1.95-1.2-1.95-1.48.69-1.63,1.73a13,13,0,0,1-3.89,6.88c-3.72,3.1-9.54,3.2-17.45,3.2C611.38,297.73,607.51,296.93,605,295.21Zm-97.62,50H513l1.82-5.11h9.31l1.82,5.11h5.67L522,320.25H517Zm15.13-9.71h-6l3-8.35Zm-29.3,9.71h5.34V320.25h-5.34ZM491.3,237.51v-.24a14.77,14.77,0,0,0-1.1-5.46h0c-.21-.53-.46-1.05-.72-1.56,0,0,0,0,0,0a8.51,8.51,0,0,0-.43-.78,8,8,0,0,0-.49-.79s0,0,0,0l-.09-.14c-.07-.12-.16-.22-.24-.34s-.1-.15-.16-.22l-.06-.09-.12-.16c-.09-.12-.16-.23-.25-.34h0v0l-.38-.47c-.16-.21-.33-.4-.49-.6a1.06,1.06,0,0,0-.15-.15,4.6,4.6,0,0,0-.31-.35c-.1-.12-.22-.22-.33-.34s-.37-.37-.56-.55-.49-.43-.74-.64a16.56,16.56,0,0,0-1.44-1c-2.88-2-9.93-6.09-27.08-6.09-6.86,0-15.51.34-21.62.34-4.17,0-13.57-.34-21.48-.34-2.23,0-3.28.24-3.28,1s.9,1,2.53,1a38.26,38.26,0,0,1,5.82.34c4.93.8,6.11,2.64,6.41,6.55.31,3.66.31,6.88.31,24.31v20.2c0,5.12,0,9.88-.09,14l-.16,4.79A54.79,54.79,0,0,1,424,295c-.6,3.32-1.34,5.85-4.32,6.31a31.33,31.33,0,0,1-5.37.46c-1.8,0-2.39.34-2.39.92,0,.8,1,1.14,3,1.14,6,0,15.37-.34,18.8-.34,3.87,0,13.26.34,23.12.34,1.63,0,2.83-.34,2.83-1.14,0-.58-.74-.92-2.39-.92-2.24,0-5.52-.23-7.61-.46-4.47-.46-5.37-3-5.82-6.19a105.09,105.09,0,0,1-.69-12.63l0-2.64c0-2.91,0-6,0-9.3V224.65c0-1.27.45-2,1.19-2.19a27.53,27.53,0,0,1,5.81-.46,27.89,27.89,0,0,1,9.44,1.64,23,23,0,0,1,3.56,1.63l.09,0a19.37,19.37,0,0,1,1.84,1.16,25.28,25.28,0,0,1,2.51,2h.06a20.28,20.28,0,0,1,5.13,8.19,2.24,2.24,0,0,1,.11.34,20.2,20.2,0,0,1,.78,3.5c.05.31.09.63.12.92s.05.63.06.92,0,.6,0,.88a18.88,18.88,0,0,1-1.64,7.79,7.61,7.61,0,0,1-.4.81,19.26,19.26,0,0,1-3.16,4.25h0l-.19.2,0,0a22,22,0,0,1-14.53,6.34c-3.13,0-4.18.34-4.18,1.26s1.05.92,1.79,1a27.47,27.47,0,0,0,3.14.12c19.48,0,34.18-9.72,36.39-24A16.79,16.79,0,0,0,491.3,237.51Zm-19.53,82.74h-9.53v24.92h9.13c9.64,0,13.65-7.08,13.65-12.46C485,326.85,480.27,320.25,471.77,320.25Zm-.85,19.95h-3.34v-15h4.08c5.08,0,7.64,3.56,7.64,7.49C479.3,336.83,475.89,340.2,470.92,340.2Zm92.37-54c-1,0-1.33.45-1.65,1.72-1,4.69-2.85,7.12-6.73,8.47s-10.21,1.4-14.11,1.4c-15.29,0-17.69-1.72-18-9.64-.14-3.33,0-13.88,0-17.8v-9c0-.69.15-1.15.89-1.15,3.61,0,18.46.13,21.3.37,5.54.44,7.65,2.16,8.39,4.46a24.36,24.36,0,0,1,.61,4.11c0,.58.3,1,1.35,1,1.34,0,1.34-1.26,1.34-2.16s.31-5.4.61-7.69a63.88,63.88,0,0,1,1.2-8.38c0-.69-.45-.92-1.07-.92s-1.34.58-2.39,1.5c-1.33,1.15-3.59,1.48-7.2,1.72-3.44.23-20.68.23-24,.23-.89,0-1-.47-1-1.27v-29c0-.81.3-1.16,1-1.16,3,0,18.76.22,21.31.46,7.49.7,9,2.06,10,4.14a9.48,9.48,0,0,1,.9,4.12c0,1,.3,1.61,1.34,1.61a1.43,1.43,0,0,0,1.51-1.27c.3-1.38.61-6.41.74-7.56a59.25,59.25,0,0,1,1.21-7.47c0-.56-.15-1-.89-1a17,17,0,0,0-2.41.46c-1.2.22-3.59.46-6.44.7s-32.68.12-37.49.12c-4.19,0-13.64-.36-21.57-.36-2.26,0-3.31.24-3.31,1s.9,1,2.55,1a38.35,38.35,0,0,1,5.84.36c4.95.79,6.16,2.64,6.44,6.53.32,3.68.32,6.88.32,24.32v20.17c0,10.58,0,19.64-.76,24.46-.61,3.32-1.35,5.84-4.33,6.29a30.65,30.65,0,0,1-5.42.47c-1.78,0-2.39.34-2.39.92,0,.8,1.06,1.15,3,1.15,3.92,0,9.32-.15,13.55-.26l6.79-.09c8.53.08,18.68.69,40.08.69,5.69,0,7,0,8.1-3a70.47,70.47,0,0,0,1.94-12.73C564.49,287.11,564.49,286.19,563.29,286.19Zm-5.2,49.86-12.36-15.8h-5.34v24.92h5.34V328.93l12.69,16.24h5V320.25h-5.34ZM149.56,51.48c7.93,3.91,18.71,9.84,32,18.19,7.85,4.92,16.54,10.67,25.88,17.32a141.42,141.42,0,0,0-10,36.76c2.22-.58,4.21-1.24,4.8-1.78,1.37-1.26,13.44-6.35,13.44-6.35l19.38-7.72A626.46,626.46,0,0,1,288.11,156l1.51,1.53c-2.62,0-5.32.67-5.09,1.81-10.42-2.09-17.83-4-19.77-4.16-4.55-.38-9.19,1.55-12.17,2.85a134,134,0,0,1-23.42,7.57c-5.58,1.13-25,4.74-33.8,5.6s-12.92-.76-15.2,5.76c-.77,2.2,1.09,4.34,5.07,6.32-18.74.71-25.83,1.73-15.49,3.19,59.37,8.35,125.11,9.42,205.25,9.88,95.76.54,225.5-9,245.26-11,5.32-.55,5-1.51,5-1.51s-60.8-.67-138.21-1.21a4.85,4.85,0,0,0,.77-4.57c-.57-2.35-6.7-4.41-11.26-4.56a242.28,242.28,0,0,1-29.26-3.31c-13.63-2.32-46.62-11.09-50.85-11.24a67.78,67.78,0,0,0-8.55,1.19c-2.35-5.28-6.45-14-8.9-16.33-3.57-3.42-1.8-6.66-1.8-6.66s-1.84-9.44-5.11-12.64-5.07-4.24-7.9-3.47-7.89,2.74-7,8l.69,3.93s1.51,7,3.7,7.18a3.38,3.38,0,0,0,3.05-1.08s1.74,3.74,1.76,5.36-1.87,6.27-1,8-8.84,4.53-19.65-1a8.34,8.34,0,0,0-.8-.83c-1.14-.92-2.2-.72-1.49.83a150.94,150.94,0,0,0,7.58,13.11c-4.37.27-9,.46-13.86.53-5.21.08-10.46-.1-15.64-.46-1.65-6.56-5.5-20.86-8.23-23.48-3.58-3.42-1-3.2-1-3.2s-2.64-12.9-5.91-16.1-5.07-4.24-7.9-3.47-7.89,2.74-7,8l.69,3.93s1.51,7,3.7,7.18a3.38,3.38,0,0,0,3.05-1.08s1.74,3.74,1.76,5.36-1.87,6.27-1,8c.54,1.12-1.93,4.12-4.71,6.06l-.43-.48S273.07,132.7,239,106.35c25.26-10,60.75-24.11,61.63-24.11h3.77c1.71,0,11.3-5.67,13-5.67A21.1,21.1,0,0,1,328,79.09c4.45,2.52,16.1,7.57,17.81,8.2S367,99.9,369.08,101.16s9.59,8.2,11,8.2,2.74-1.27,4.11.63,2.4,3.15,3.77,3.15,12-3.15,14-3.15,4.79,1.89,6.16,1.89,14.73-4.42,16.44-4.42,5.64-2.43,7.35-2.43,10.12-1.35,15.94.54,15.87.68,17.58.68c.87,0,5.82-1.1,10.74-2.18A142.67,142.67,0,0,0,208.58,84.44c-6-4-12.31-8.07-18.77-12a418.29,418.29,0,0,0-41-22c-2.89-1.34-5.62-2.61-8.55-3.87A25.21,25.21,0,0,0,136.19,45a1,1,0,0,0-.3-.06c.37.32,2.44,1.07,4.55,2C143.24,48.27,145.43,49.45,149.56,51.48ZM388.34,167.66c8.12,1.2,20.85,4.89,35,7.92a185.75,185.75,0,0,0,29.55,4c5.2.41,11.08-.09,12.37,1.08.71.65.71,1.23.39,1.71-32.85-.21-67.81-.39-101.84-.48-1.57-3-3.5-6.66-5.36-10.07C373.28,170,382.79,166.84,388.34,167.66ZM350,156.85a12.94,12.94,0,0,0,2.27,1.48,29.91,29.91,0,0,0,11.68,2.15l1.45,2.78c-3.3.36-6.83.69-10.56,1A67.75,67.75,0,0,0,350,156.85ZM303.07,171c1.89.23,3.9.44,6.05.64,6.9.63,15.19,1.12,25.2,1.38a161.47,161.47,0,0,0,21.27-.86l4.92,9.74c-56.62-.14-110.36,0-147.12.6a15.5,15.5,0,0,1-5.22-3.74s-.52-.87,2-1.32c3.28-.59,21.68-4.39,29.25-6.22s21.2-9.28,27.06-9.08C274,162.42,276.34,167.88,303.07,171ZM582,340.87c-2.52,0-3.49-2-3.89-3.63l-4.72,2.48c1.3,2.78,3.86,6,8.57,6a8.26,8.26,0,0,0,8.53-8.23c0-8.09-10.6-7.64-10.6-10.94,0-1.12.81-1.93,2.26-1.93a3.64,3.64,0,0,1,3.08,2l4.45-2.49a8.74,8.74,0,0,0-7.53-4.41,7.48,7.48,0,0,0-7.68,7.16c0,7.53,10.46,6.86,10.46,11.13A2.92,2.92,0,0,1,582,340.87ZM333.13,304.8c1.65,0,2.84-.36,2.84-1.16,0-.56-.75-.92-2.39-.92-2.24,0-5.52-.22-7.6-.46-4.48-.44-5.52-2.52-6-5.62-.6-4.93-.6-14-.6-25.12V245.27c0-12.23,0-15.09.29-18.28.31-4,1.5-6,5.52-6.54a32.62,32.62,0,0,1,4.48-.34c1.49,0,2.39-.24,2.39-1.16,0-.68-1.2-.91-3.13-.91-5.67,0-14.46.34-18.2.34-4.32,0-13.71-.34-19.38-.34-2.39,0-3.59.23-3.59.91,0,.92.9,1.16,2.39,1.16a26.91,26.91,0,0,1,5.37.46c3.28.56,4.78,2.52,5.07,6.42.3,3.66.3,6.88.3,24.32v20.21c0,11.13,0,20.19-.74,25-.45,3.33-1.35,5.29-4.34,5.73a30.16,30.16,0,0,1-5.37.46c-1.78,0-2.39.36-2.39.92,0,.8,1.06,1.16,3,1.16,6,0,15.37-.36,18.8-.36l9.21.18C323.2,304.71,328.12,304.8,333.13,304.8ZM240.47,328c0-2.37-1.34-7.71-8.27-7.71H224v24.92h5.34v-9.34h2l6.6,9.34h6.71l-8.08-10.72A7.27,7.27,0,0,0,240.47,328ZM231.6,331h-2.3v-5.82h2.38c2.22,0,3.45,1.11,3.45,2.85S234.16,331,231.6,331Zm-23.7,14.13V325.22H215v-5H195.43v5h7.12v19.95Zm50.11,0V320.25h-5.34v24.92Zm432.36-24.53C637.3,353.19,576.86,367.5,520.8,372.38c-58.54,5.1-111.81.13-147-5.08-1.55-.23-9.19-1.68-11.54-2.15-21.57-4.36-28.48-6.65-30.65-7.14-2.34-.65-2.44-.13-2.47.14-.06.57.52,1.31,1.49,1.8a119.34,119.34,0,0,0,16,7.26c30.33,11,52.71,20,105.19,23.55s115.42.36,187.61-31.48C689,337.38,715.48,305.24,690.37,320.64Zm-64.75,80.29c-56.67,32.92-113.91,43.3-166.76,41.41-102.44-3.67-188.34-53.48-221.5-74.77-4.93-3.41-9.45-6.68-13.53-9.73-.87-.65-1.17-.49-1.37-.36-.36.24-.41.8,0,1.46a75.64,75.64,0,0,0,5.49,7c23.71,31.59,163.73,125.91,316,89.45C599.32,442.13,651.3,386,625.62,400.93ZM434.87,478c-1.91-.22-4.92-.49-9.24-.8-25.85-1.89-49.05-7.23-73.86-16.08l-10.89-4.09c-11.58-4.55-23-9.71-34.16-15.35l-3.58-1.81a552.22,552.22,0,0,1-68-42l-5.85-4.24c-14.09-10.34-27.52-21-40.13-31.68l-5.49-4.69c-19.26-16.57-36.5-32.95-51.25-47.74l-5.07-5.15c-2.57-2.63-5.06-5.18-7.47-7.69L130.63,275l.37-.68L137.51,261l7-14.39,3.27-6.72c.14-.45,1.41-3.25,2.89-3.25s2.82,2.8,3,3.25l2.28,4.84,10.61,22.45c-8.06,1.84-15.3,6.08-19.87,13.2-1.32,2.08,11.71,8,13.94,4.53A26.29,26.29,0,0,1,170.84,276l11.26,23a1.74,1.74,0,0,1-1.32,2.58c-1.47.12-2.05.36-2.05,1s1.75.8,4.39.92l27.66.31c4.73,0,11.62-.21,16-.3h7.09c10.33.13,20.23.65,39.13.65,7.75,0,8.5-.56,9.39-3.09,1.19-3.34,2.24-11.94,2.24-13.2s-.15-1.95-1.2-1.95-1.48.69-1.63,1.73a13,13,0,0,1-3.89,6.88c-3.72,3.1-9.54,3.2-17.45,3.2-11.63,0-15.5-.8-18-2.52-3.13-2.06-3.13-10-3.13-24.67V237.91c0-7,.08-9.35.29-11.88.29-4,1.49-6,5.52-6.55a48.94,48.94,0,0,1,5.81-.34c1.8,0,2.69-.24,2.69-1s-1-1-3.13-1c-5.82,0-16.71.34-20.29.34-4,0-13.42-.34-20.43-.34-2.24,0-3.28.24-3.28,1s.89,1,2.53,1a27.56,27.56,0,0,1,4.92.34c4.93.8,6.12,2.64,6.41,6.55.3,3.66.3,6.88.3,24.31v21.31c0,10.09,0,18.68-.74,23.34-.6,3.32-1.34,5.85-4.32,6.31-.67.11-1.46.23-2.35.31-1.17-.06-2.41-.18-3.66-.37-3.07-.57-7.32-2.15-12.85-12.23l-3.17-5.89c-1.71-3.16-3.61-6.75-5.61-10.55a35.28,35.28,0,0,1,9.2,2c2.41.86,5.4,2.4,6,1.57s.31-1.87-2.29-3.48a44.64,44.64,0,0,0-16-5.88l-6.74-12.89-1.72-3.3s-2.82-5.4-6-11.42l-.24-.46c-3.46-6.61-7.24-13.8-8.1-15.36-.46-.83-.91-1.57-1.34-2.26v0l-.39-.72a6,6,0,0,0-1.38-1.75,6.4,6.4,0,0,0-8.76.22,6,6,0,0,0-1.15,1.55l-8.91,16.78v0l-3.53,6.67-2.32,4.33-6.73,12.67-15,28.22c-8.82-9.35-16.16-17.51-21.89-24l-4-4.51-2.93-3.32-9.83-9.93L77,244.45c4.57-4.61,19.1-19.23,27.14-27.27,4.32-4.3,8.31-8.25,11.36-11.21l3-2.9,1.36-1.27c9.69-9,17.35-13.52,24.34-16.1a45.82,45.82,0,0,1,13-2.36c2.26,0,3.39-.43,3.39-1.93s-1.58-1.93-3.83-1.93c-7,0-19.38.64-26.37.64-6.07,0-18.47-.64-23.19-.64-2.48,0-3.61.43-3.61,1.93,0,1.29.9,1.72,2.93,2.15,2.25.43,3.16,1.93,3.16,4.29,0,3.65-5,9-11.26,16.08-2.24,2.5-7.54,7.85-13.85,14.16C74.65,228,56.93,245.71,52,250.4a2.08,2.08,0,0,1-1.74.73v-9.44c0-21,0-31,.12-37.24l.14-4.43c.06-1.35.12-2.57.2-3.8.45-7.51,2.26-11.16,8.34-12.23a35,35,0,0,1,6.31-.65c1.79,0,3.14-.43,3.14-1.93s-1.57-1.93-4.73-1.93c-7.65,0-21.84.64-27.25.64s-19.6-.64-31.53-.64c-3.39,0-5,.43-5,1.93s1.35,1.93,3.83,1.93a48.53,48.53,0,0,1,8.78.65c6.52,1.32,8.71,4.13,9.45,9.72l.36,4.42c.28,5.37.33,11.77.33,32v57.95l0,3.56,0,6.5c-.07,10.28-.28,19-.86,25-.06.69-.13,1.38-.21,2s-.22,1.47-.34,2.18a28.83,28.83,0,0,1-1.17,4.76c-.95,2.6-2.43,4.37-5,4.86a38.45,38.45,0,0,1-8.11.86c-2.26,0-3.25.44-3.52,1.23a1.24,1.24,0,0,0-.09.52c0,1.51,1.58,2.15,4.5,2.15,9,0,23.2-.64,28.38-.64,5.64,0,19.83.64,32.44.64,2.48,0,4.29-.64,4.29-2.15,0-1.07-1.13-1.71-2.94-1.71A99.17,99.17,0,0,1,59,337c-5.63-.86-7.67-5.58-8.11-11.59-.33-4.42-.49-10.61-.58-18l0-3.56c-.06-7.25-.06-15.5-.06-24.31V259.93s.87-.77,2.23.79c4.41,5,15.71,17.79,32.27,34.73l6.09,6.17c8.85,8.92,19,18.77,30.2,29.13l10.12,9.3c17.94,16.19,38.21,33.25,60.08,49.66l5,3.7a630.4,630.4,0,0,0,54,35.92l8.11,4.67c38.57,21.81,79.51,38.09,119.87,43.24,29.05,3.71,43.8,3.29,55.76,2.45C436.19,479.52,437.16,478.07,434.87,478ZM657,360.59A382,382,0,0,1,501.46,406c-96.88,6.9-177.94-24.33-212-39.95-7.35-3.72-15.91-8.24-15.91-8.24s-2-1.2-2.4-.68.21,1.74.56,2.14a92.52,92.52,0,0,0,14.85,11.13c18.52,11.4,29,16.39,47.56,24.87,50.53,21.6,138.62,50.32,241.56,16.43C629.6,394,683.08,346.51,657,360.59ZM314.38,325.22v-5H297.62v24.92h16.76v-5H303v-5.34h8.12v-5H303v-4.67Zm74.45,0v-5H372.06v24.92h5.35V334.86h8.12v-5h-8.12v-4.67Zm22.55,19.95h5.34V320.25h-5.34ZM285.69,326.85c0-3.23-2.41-6.6-7.94-6.6h-8.24v24.92h10c3.93,0,7.75-2.48,7.75-7.27,0-3.26-2.74-5.45-5.15-6A5.6,5.6,0,0,0,285.69,326.85Zm-10.83-2h2.33c2.3,0,3.34,1.19,3.34,2.63,0,1.82-1.26,2.82-3.26,2.82h-2.41Zm3.74,15.8h-3.74v-5.79h3.3c2.41,0,3.74,1.19,3.74,2.94S280.57,340.61,278.6,340.61Zm124.24-59.85v-.46l-.3-3.34c-1.35-8.4-7.51-15.12-21.11-23.6l-6.81-4-.42-.24c-12.37-7.22-15.8-11.24-15.8-16.53,0-6.88,6.71-11.81,17.75-11.81,9.68,0,14,3.45,16.24,5.63a12.18,12.18,0,0,1,3.89,7.56c0,1.38.44,2.07,1.48,2.07,1.21,0,1.65-.91,1.65-3.45,0-8.94.59-12.27.59-13.77,0-.8-.74-1.14-2.09-1.38a92.84,92.84,0,0,0-19.84-1.94c-20.72,0-34.45,9.07-34.45,21.69,0,9.29,5.67,17.33,22.08,27.2l6.85,4.13c10.87,6.43,13.92,11.38,14.52,16.29l0,3.22c-.77,5.78-7.31,11.93-19.89,11.93-9.26,0-18.06-3.09-21.34-11.59a19.37,19.37,0,0,1-1.33-5.85c0-.92-.15-2-1.5-2-1.19,0-1.63,1.26-1.78,3s-.76,8.72-.76,15c0,2.52.45,3.09,2.83,3.89,6.41,2.18,13.14,3,21.79,3,7.9,0,16.24-1,23.71-4.72C399.56,295.33,402.84,287.41,402.84,280.76Zm30.73,39.49h-5.34v24.92h5.34V328.93l12.68,16.24h5V320.25h-5.34v15.8Zm-96.63,12.46a13.47,13.47,0,1,0,13.46-13A13.36,13.36,0,0,0,336.94,332.71Zm21.25,0a7.79,7.79,0,1,1-7.79-8A7.72,7.72,0,0,1,358.19,332.71Z" style="fill:#fff"/></g></g></svg>