<svg xmlns="http://www.w3.org/2000/svg" viewBox="0 0 252.29 122.54"><g id="Layer_2" data-name="Layer 2"><g id="Layer_1-2" data-name="Layer 1"><path d="M12.74,73.27c11.69-2.29,23.45-4.46,35.4-6.65-.79-3.58-1.5-7.17-2.28-10.75S44.37,48.68,43.7,45c-11.91,1.76-23.62,3.62-35.23,5.49Z" style="fill:#b4b9bc"/><path d="M78.39,51.41c.55,3.35,1.06,6.82,1.6,10.17,9.61-1.26,19.15-2.38,28.91-3.39-.38-3.1-.73-6.33-1-9.56s-.56-6.47-.83-9.71c-10.15.52-20.2,1.29-30.24,2.19C77.33,44.59,78,47.93,78.39,51.41Z" style="fill:#b4b9bc"/><path d="M34.82,1.62C23.09,2.63,11.5,3.83,0,5.13L4.24,27.79c11.57-1.65,23.18-3.13,35-4.5-.77-3.58-1.49-7.17-2.27-10.76S35.43,5.35,34.82,1.62Z" style="fill:#b4b9bc"/><path d="M178.85,48.66c-.2,2.62-.5,5.37-.63,8,6.45.41,13,1,19.58,1.5.4-2.51.81-5,1.2-7.52s.81-5,1.21-7.52c-6.9-.9-13.79-1.68-20.61-2.46C179.33,43.28,179,46,178.85,48.66Z" style="fill:#b4b9bc"/><path d="M213.58,59.8l9,1.12,10.35-12c-5.28-1.16-10.73-2.17-16.18-3.19-.62,2.39-1.09,4.77-1.6,7S214.18,57.41,213.58,59.8Z" style="fill:#b4b9bc"/><path d="M104.43,10c-.29-3.22-.57-6.46-.85-9.69C92.6-.07,81.62,0,70.76,0c.45,3.48,1.06,6.82,1.5,10.3s1.06,6.83,1.61,10.17c10.36-.41,20.85-.82,31.39-.85C105,16.43,104.7,13.2,104.43,10Z" style="fill:#b4b9bc"/><path d="M181.07,24.52c-7.18-1-14.46-1.88-21.73-2.62l-.27,8.61c-.09,2.87-.14,5.61-.24,8.48,6.86.51,13.83,1,20.77,1.66.29-2.75.49-5.37.79-8.13S180.88,27.15,181.07,24.52Z" style="fill:#b4b9bc"/><path d="M133.1,47.48c.17,3,.18,6.11.3,9.09,8.26-.38,16.61-.49,24.86-.48.09-2.86.18-5.74.23-8.48s.19-5.74.34-8.62c-8.68-.37-17.4-.62-26-.74C132.91,41.38,133.09,44.35,133.1,47.48Z" style="fill:#b4b9bc"/><path d="M132.16,20.07c-8.93-.35-18-.44-26.9-.41.29,3.23.62,6.47,1,9.56.22,3.24.56,6.47.85,9.7,8.5-.39,17-.52,25.72-.67-.11-3-.23-6-.31-9.08S132.24,23.2,132.16,20.07Z" style="fill:#b4b9bc"/><path d="M223.06,17.92c-.49,2.25-1.05,4.64-1.55,6.89s-1,4.64-1.6,7c5.71,1.38,11.34,2.78,16.87,4.3.65-2.14,1.29-4.27,1.94-6.4s1.3-4.27,1.94-6.4C234.88,21.45,229.05,19.54,223.06,17.92Z" style="fill:#b4b9bc"/><path d="M201.48,35.59c-.4,2.5-.87,5-1.27,7.52l16.56,2.64c.5-2.25,1-4.64,1.55-6.89s1-4.63,1.59-7c-5.81-1.25-11.55-2.51-17.34-3.63C202.17,30.73,201.88,33.09,201.48,35.59Z" style="fill:#b4b9bc"/><path d="M159.57,13.42c.16-2.88.25-5.76.24-8.49-9.46-1.23-18.87-2.19-28.25-3,.11,3,.18,6.1.3,9.09s.19,6.11.3,9.09c9,.48,18.06,1.09,27.18,1.83C159.39,19.16,159.49,16.28,159.57,13.42Z" style="fill:#b4b9bc"/><path d="M73.87,20.51c-11.75.9-23.26,1.78-34.62,2.78.67,3.73,1.39,7.32,2.17,10.91S42.91,41.38,43.7,45c10.92-1.36,22-2.73,33.18-3.85-.44-3.48-1-6.83-1.5-10.3S74.32,24,73.87,20.51Z" style="fill:#b4b9bc"/><path d="M203.84,20.7c.47-2.52.88-5,1.27-7.52-7.48-1.77-15-3.28-22.49-4.79-.36,2.76-.56,5.38-.86,8.14-.19,2.61-.49,5.38-.69,8,7.21,1.14,14.4,2.29,21.5,3.69C203,25.7,203.45,23.2,203.84,20.7Z" style="fill:#b4b9bc"/><path d="M18,31.7A.26.26,0,0,0,18,32a.51.51,0,0,0,.27.15l12.46,2.17c3.28.57,6.13.92,5.9,1.08-3,2.23-5.82,5.19-8.27,10.9l-1.9,4.06L10.5,51.7a6.62,6.62,0,0,0-1,.15c-.43.1-.83.37-.47.76a1.72,1.72,0,0,0,.57.25l13.62,3.61.59.16L18.57,68.42a23.69,23.69,0,0,0-1.73,8.85l-.44,33.81a11.51,11.51,0,0,0,11.53,11.46H227.46A11.52,11.52,0,0,0,239,111.08V53.41a11.32,11.32,0,0,0-1.25-5.15l-.12-.26a.25.25,0,0,1,0-.07c-.09-.18-.18-.36-.28-.54a11.71,11.71,0,0,0-2.44-3l17.43-16.2H219.08l-2.65,3.55-29.09.39c-.88,0-2.31.06-4.45.09-20.2.26-20.81.92-20.86,1s2.24.48,6.06.74l44.59,2.72-.58.65L160,38.65c-11.92.52-4.91,1.44-4.91,1.44l23.66,1.6-.13,0H132.29A20.62,20.62,0,0,0,129,42l4.77-11.31H107l-24.64.16-1.3,3a14.72,14.72,0,0,0-5-2.75,15.4,15.4,0,0,0-4.82-.69l-25.9.1c-4.63.1-12.13.26-16.95.51l-9.81.56A1,1,0,0,0,18,31.7ZM199.16,45.06c-.37.26-.73.53-1.09.81a12,12,0,0,0-4.16-3.33l8.81.5A22.89,22.89,0,0,0,199.16,45.06Z" style="fill:#b4b9bc"/><path d="M24.27,32.36,42,34.14A20.38,20.38,0,0,0,38.63,36a29.26,29.26,0,0,0-9.48,12.44l-1.49,3.66-16.26.47,15,2.67L20.78,68.52A24.91,24.91,0,0,0,19,77.75a3.44,3.44,0,0,0,0,.42v32.91a9.56,9.56,0,0,0,9.58,9.52H227.46a9.56,9.56,0,0,0,9.58-9.52V54.78a10.86,10.86,0,0,0-1.32-6.48A9.87,9.87,0,0,0,232,44.59L247.67,30H220l-2.32,3-45.08.17a25.35,25.35,0,0,0-3.69.17l46.77,2.28-2.46,3.22-56.35.75,8,.49L211,41.67,209.82,43a20.15,20.15,0,0,0-9.62,3.55,19,19,0,0,0-1.92,1.54h-.89c-1.18-2-4.06-5.2-10.42-5.2h-2.88a22.75,22.75,0,0,0-5.76.76l0-.12H132.29a18.77,18.77,0,0,0-6.46,1.13L131,32.49H108.16L103,44.81h-1.83l5.21-12.16H83.52l-2,4.61C79.26,33.73,75.07,32,68.75,32H52.69l-12.95.12c-7.89-.06-15.65,0-15.65,0S22.33,32.13,24.27,32.36Z"/><path d="M48.82,109.07a1.57,1.57,0,0,0-.45-.51c1.85-.61,2.93-1.79,4-4.13.51-1.12,1.11-2.74.36-3.92S50.5,99,47.56,99H36.72l-8,17.3h3.73l3-6.5h7.12c1.81,0,2.14.11,2.5.39.19.16.43.35-.14,1.6l-2.08,4.51H46.6l2-4.45A2.88,2.88,0,0,0,48.82,109.07Zm-2-7.37c2.14,0,2.43.39,2.47.47.12.26-.09,1-.74,2.36-.79,1.7-1.82,2.5-5.6,2.5H36.73l2.47-5.33Z" style="fill:#ffe100"/><path d="M61.28,101l-13,13.25h4l2.45-2.49h7.31l.18,2.49h3.5L64.93,101Zm.65,8.21H57.24l4.42-4.52Z" style="fill:#ffe100"/><path d="M83.51,108.83H79.92l-.15.37c-.17.43-.25.61-.39.9-.69,1.5-.78,1.7-5.19,1.7-.76,0-2.77,0-3-.27a.74.74,0,0,1,0-.38,27.55,27.55,0,0,1,2.1-5.2c.88-1.91,1.46-2.27,2.74-2.39.69-.06,2.33-.1,3.89-.1a8.34,8.34,0,0,1,2.12.16c0,.08,0,.31-.37,1.13l-.54,1.33h3.46l.3-.65c.71-1.55,1.22-3.25-.46-4.09-.85-.44-1.7-.51-3.84-.51-4.69,0-5.82.16-7.56,1.06s-2.28,1.66-4.12,5.65a29.46,29.46,0,0,0-1.09,2.75c-.66,1.95-.16,3.23,1.53,3.81a11.5,11.5,0,0,0,3.69.32c4.49,0,5.45-.11,6.85-.8s2-1.44,2.85-3.35Z" style="fill:#ffe100"/><polygon points="82.74 114.25 95.21 114.25 96.42 111.63 87.49 111.63 88.83 108.73 97.39 108.73 98.59 106.12 90.03 106.12 91.18 103.63 100.12 103.63 101.33 101 88.86 101 82.74 114.25" style="fill:#ffe100"/><polygon points="124.84 101 116.53 110.41 117.07 101 113.16 101 104.98 110.42 105.42 101 101.94 101 101.48 114.25 105.37 114.25 113.49 104.88 112.9 114.25 116.84 114.25 128.77 101 124.84 101" style="fill:#ffe100"/><path d="M132.47,101l-13,13.25h4l2.45-2.49h7.31l.18,2.49H137L136.11,101Zm.64,8.21h-4.68l4.41-4.52Z" style="fill:#ffe100"/><polygon points="145.5 106.02 143.23 101 139.35 101 142.65 108.63 140.06 114.25 143.59 114.25 146 109.02 157.04 101 152.38 101 145.5 106.02" style="fill:#ffe100"/><path d="M181.76,104.75c.79-1.71,1-3,.64-3.94A2.41,2.41,0,0,0,181,99.46c-.92-.4-1.77-.49-4.76-.49h-9.56l-8,17.3h3.73l2.92-6.31h6a21.58,21.58,0,0,0,4.68-.27C178.68,109.1,180.45,107.58,181.76,104.75Zm-6.29-3h.13a11.6,11.6,0,0,1,2.75.13c.21,0,.47.14.53.26.19.39-.5,1.91-.73,2.4a3.69,3.69,0,0,1-2.48,2.44,18.53,18.53,0,0,1-4.09.29h-4.94l2.55-5.52Z" style="fill:#ffe100"/><path d="M188.71,101l-13,13.25h4l2.45-2.49h7.32l.17,2.49h3.5L192.35,101Zm.64,8.21h-4.68l4.41-4.52Z" style="fill:#ffe100"/><path d="M209.87,108.39a5.44,5.44,0,0,0,2.69-3c.4-.86.86-2.12.24-3.08s-1.8-1.26-4-1.26h-8.68L194,114.25h3.54l2.19-4.74H205c1.2,0,1.41.07,1.61.24,0,0,.15.11-.18.82l-1.7,3.68h3.5l1.61-3.49a2.35,2.35,0,0,0,.13-2.24Zm-7.47-4.76h5.71a3.63,3.63,0,0,1,1.48.14c0,.11,0,.47-.52,1.55s-1.13,1.57-3.63,1.57H200.9Z" style="fill:#ffe100"/><polygon points="232.64 101 227.29 101 218.14 106.14 217.7 106.14 220.08 101 216.54 101 210.43 114.25 213.96 114.25 216.47 108.81 217.34 108.81 222.38 114.25 227.06 114.25 220.88 107.59 232.64 101" style="fill:#ffe100"/><path d="M18.64,53.22l10,.68L30.9,54l-1.3.91L23.28,69.6c-2.28,5.33-2.61,9.28-1,12.08,1.5,2.62,4.45,4,9,4.31a9.51,9.51,0,0,0,0,4.51l-9,.66s-.12,0,0,0l2.51.07,8.93.18L32,92.13a1.51,1.51,0,0,0,.09.18,7.18,7.18,0,0,0,2.42,2.49l-12.86.5s-.15.07,0,.06l7.52.27,10.69,0-1.57.49.58.07c.42,0,.86.06,1.33.06h2.91a25.55,25.55,0,0,0,3-.17c1-.11,2-.25,3.06-.41l1.42-.23,4.28-10a18.84,18.84,0,0,0,6.73-2.9,24.67,24.67,0,0,0,7.54-9.3c-1.4,3.5-1.43,6.48-.06,8.87,1,1.8,3.27,3.94,8.12,3.94.87,0,1.8,0,2.79-.1s1.83-.14,2.65-.23c1-.09,1.94-.2,2.88-.33l1.46-.21,5.71-13.32H86.57L102.2,35.37H85.31L79.52,48.88c1.48-4.25,1.35-7.36,0-9.79-1.68-2.93-5.19-4.36-10.73-4.36h-16a21.49,21.49,0,0,0-12.56,3.51c-3.29,2.3-6,6-8.13,10.88l-1.61,3.66-11.82.38S18.53,53.19,18.64,53.22Zm43.5-4.1L53.36,69.6A4.9,4.9,0,0,1,52.51,71L41.6,67l6.79-15.84c.85-2,2-2.26,3.08-2.26H62.22C62.2,49,62.17,49.05,62.14,49.12Z" style="fill:#fff"/><path d="M221.41,35l-2.19.25-3.55,4.66-19.85.18,20.64.86-2.14.54-3.1,4.12a17.46,17.46,0,0,0-9.47,3.15,19.23,19.23,0,0,0-5.82,6.56,8.47,8.47,0,0,0-.84-5.8c-1-1.79-3.27-3.94-8.12-3.94h-2.88a20.31,20.31,0,0,0-5.15.7c-1.53.4-3,.84-4.32,1.31l.32-1.37H160L151.3,66.58a7.78,7.78,0,0,0-1-3.62,7.43,7.43,0,0,0-3.74-3.16h5.66L158,46.25H132.29a16.41,16.41,0,0,0-9.59,3.1,18.38,18.38,0,0,0-2.94,2.54l1.28-3,5.8-13.71H110l-5.21,12.32h-4.8L94,61.4h4.8l-10.29,24H105.4l.49-.89,2.82.24,15.83,1.1,7.66.25a16.69,16.69,0,0,0,10.31-3.32,19.17,19.17,0,0,0,2.93-2.52l-3.59,8.38L93.22,90.12s-.39.12.11.11l42.83.6,6.76.07-2.41.82-.46,1.1-26.74,1.06s-.88.05,0,.12l21.27.89,7.73.25-3.57,1.14h16.67l4.66-10.88h11.4a17.44,17.44,0,0,0,10.19-3.19A19.26,19.26,0,0,0,187.35,76a8.54,8.54,0,0,0,.81,6c1,1.79,3.28,3.92,8.13,3.92,0,0,7.32,0,24.81-1.42l6.13-11.51L233,59.5c1.7-4,1.83-7.29.37-9.85-1.27-2.22-3.5-3.52-6.6-3.9l14-13H221.29l-.92,1.18-16.51,0s-.15,0,0,0l15.14.73ZM112.91,71.26l-1.38-.15L114,65.35A7.81,7.81,0,0,0,115,69a7.2,7.2,0,0,0,3,2.84Zm60.05-.7c-.39.9-.77,1-1.26,1h-5.63L170.58,61c.48-.11,1-.21,1.46-.3h.06q1.18-.24,2.52-.42a17.8,17.8,0,0,1,2.29-.17h.52Zm43-10.87h-5.18c.37-.78.73-.85,1.19-.85h4.36Z" style="fill:#fff"/><path d="M77.21,40.39q-1.74-3-8.46-3h-16q-6.72,0-11.06,3t-7.23,9.76L25.69,70.63q-2.88,6.72-1.15,9.76t8.46,3h1.92l-.27.63C33.41,87,33.3,89.26,34.3,91s3,2.6,5.86,2.6h2.91a23.66,23.66,0,0,0,2.73-.15q1.47-.15,2.91-.39l2.9-6.75h-4.8a1.41,1.41,0,0,1-1.33-.64,1.74,1.74,0,0,1,.05-1.6l.27-.64H49q6.72,0,11.06-3t7.23-9.76l8.78-20.48Q78.95,43.43,77.21,40.39ZM64.54,50.15,55.77,70.63a5.64,5.64,0,0,1-5.49,3.84H49.05l.65-1.72-9.38-3.41-1.89,5q-2.62-.47-1.22-3.76L46,50.15a5.64,5.64,0,0,1,5.49-3.84H62.35Q66.19,46.31,64.54,50.15Z" style="fill:#e1001e"/><path d="M83.52,73.83a1.74,1.74,0,0,1,0-1.6L98.24,38H87L71.68,73.83q-1.87,4.35-.37,7t5.85,2.63c.81,0,1.68,0,2.6-.1s1.79-.14,2.6-.22,1.85-.19,2.76-.32l3.57-8.32H84.84A1.39,1.39,0,0,1,83.52,73.83Z" style="fill:#e1001e"/><polygon points="122.88 37.83 111.68 37.83 108.11 46.31 119.31 46.31 122.88 37.83" style="fill:#e1001e"/><polygon points="101.67 50.15 97.96 58.79 102.76 58.79 92.48 82.79 103.68 82.79 117.67 50.15 101.67 50.15" style="fill:#e1001e"/><path d="M124.54,83.24h8.39A13.87,13.87,0,0,0,141,80.63a15.85,15.85,0,0,0,5.59-6.91l1.08-2.54c1.24-2.87,1.35-5.18.34-6.91s-3-2.6-5.86-2.6H130.65a1.42,1.42,0,0,1-1.33-.64,1.77,1.77,0,0,1,.05-1.6,3.66,3.66,0,0,1,1.33-1.6,3.18,3.18,0,0,1,1.87-.64h17.92l3.57-8.32H132.29a13.84,13.84,0,0,0-8.1,2.62,16.09,16.09,0,0,0-5.61,7l-1,2.24q-1.86,4.35-.36,7t5.85,2.63h13.76L136,72.45a3.47,3.47,0,0,1-1.3,1.53,3.26,3.26,0,0,1-1.86.62h-13.5a36.27,36.27,0,0,1-6.67-.74l-3.55,8.3Z" style="fill:#e1001e"/><path d="M192.82,50.85q-1.5-2.62-5.85-2.62h-2.88a17.77,17.77,0,0,0-4.48.6c-1.54.41-3,.85-4.28,1.32a37.52,37.52,0,0,0-4.4,1.92l.73-3.2h-9.92l-19.21,44.8h11.21l4.66-10.88h13.12a14.85,14.85,0,0,0,8.69-2.72,17.29,17.29,0,0,0,5.94-7.52l6.31-14.72Q194.32,53.48,192.82,50.85Zm-12.39,8.9-5.07,11.84a3.77,3.77,0,0,1-3.66,2.56h-9.6l6.59-15.36c1-.26,1.93-.47,2.89-.64s1.74-.32,2.69-.45a19.51,19.51,0,0,1,2.64-.19h2.25a1.39,1.39,0,0,1,1.32.64A1.74,1.74,0,0,1,180.43,59.75Z" style="fill:#e1001e"/><polygon points="234.09 35.36 222.57 35.36 214.06 46.24 222.38 46.24 234.09 35.36" style="fill:#e1001e"/><path d="M214.66,74.85H203.72a1.46,1.46,0,0,1-1.34-.6,1.6,1.6,0,0,1,0-1.52l1-2.42h22.08l5.07-11.84c1.38-3.2,1.54-5.71.51-7.52s-3.16-2.72-6.36-2.72h-12.8a14.85,14.85,0,0,0-8.68,2.7,17,17,0,0,0-5.92,7.48l-6.55,15.28c-1.24,2.89-1.35,5.2-.35,6.94s3,2.61,5.86,2.61c0,0,5.41.5,22.87-1.09l4.91-8.21c-1.92.2-4.89.54-7.14.79A22.52,22.52,0,0,1,214.66,74.85Zm4.59-16.06-1.51,3.52H206.86l1.51-3.52A3.75,3.75,0,0,1,212,56.23h5.76Q220.35,56.23,219.25,58.79Z" style="fill:#e1001e"/><path d="M216.57,91.21,203.88,91c-8.54-.08-22.88.36-25.42.45l-1.3.08-.63,0-4.54.26c-1.37.14-3.77.31-2.74.5l26.33.36,20.78-1C218.3,91.5,216.89,91.33,216.57,91.21Z" style="fill:#fff"/><path d="M230.58,95.41l-27.66.67c-.15.11-.11.24.54.35,8.89.46,27.77,1.24,28.51-.36C231.85,95.71,231.27,95.51,230.58,95.41Z" style="fill:#fff"/><path d="M48.37,77.17s-3.27,7.63-3,7.63A8,8,0,0,0,46.91,84Z" style="fill:#fff"/></g></g></svg>