<?xml version="1.0" encoding="utf-8"?>
<!-- Generator: Adobe Illustrator 27.2.0, SVG Export Plug-In . SVG Version: 6.00 Build 0)  -->
<svg version="1.1" id="Layer_1" xmlns="http://www.w3.org/2000/svg" xmlns:xlink="http://www.w3.org/1999/xlink" x="0px" y="0px"
	 viewBox="0 0 57.5 68.9" style="enable-background:new 0 0 57.5 68.9;" xml:space="preserve">
<style type="text/css">
	.st0{opacity:0.5;}
</style>
<g id="Layer_2_00000108296159359361062100000017321364833354270910_" class="st0">
	<g id="Layer_1-2">
		<path d="M24.5,52.9c0.6-1.1,1.2-2.2,1.7-3.4c0.2-0.5,0.1-1.1-0.2-1.6c-3-2.9-2.5-5.9-0.5-9c0.6-1,1-2,0.1-3.1
			c-0.8-1.1-2.3-1.3-3.3-0.5c-0.3,0.2-0.5,0.5-0.7,0.9c-0.9,1.7-1.9,3.2-3,4.7c-2.1,2.6-5.7,3.3-8.6,1.6C5,40,3.2,35.3,5.7,30.3
			C9,23.7,12.5,17.2,16,10.6c1.1-2.2,2.1-4.4,3.4-6.5C20.1,3,21,2,22,1.2c1.8-1.4,4.2-1.5,6.1-0.4c1.8,0.9,2.9,2.6,3,4.6
			c0.1,2.4-0.3,4.7-1.1,6.9c-0.9,3.1-1.8,6.1-2.6,9.2c-0.1,0.6,0.1,1.2,0.5,1.7c3.6,3.3,7.3,6.4,11,9.7c0.7,0.6,1,0.4,1.4-0.3
			l0.1-0.1c1.6-3.3,2.1-2.4-0.7-5.3c-1.7-1.7-3.3-3.5-4.9-5.3c-1.4-1.6-2.5-3.6-1.9-5.8c1-3.8,2.8-7.3,6.3-9.5
			c1.7-1,3.6-1.4,5.5-1.2c3,0.3,5.9,1.3,8.4,3c4.3,3,5.5,7.3,3.7,12.2c-0.4,1-0.8,2-1.3,3c-3.1,6-6.2,12-9.4,18l-0.7,1.3l6.8,3.5
			l-4.3,8.2L41,51.1l-0.7,1.3l-5.6,10.8c-2.9,5.6-8,7.2-13.6,4.3c-5.8-3-11.5-6-17.2-9c-3.6-1.8-5-6.1-3.2-9.7
			c0.8-1.6,2.1-2.8,3.7-3.4c2.1-0.8,4.4-0.7,6.4,0.5c4.1,2.2,8.2,4.3,12.4,6.4L24.5,52.9z M40.2,45.3l-2.5-1.4l1.1-2.7l-2.7-1.4
			l-1.5,2.9l3.1,1.3l-1.8,2.9l3,1.5C39.4,47.3,39.8,46.3,40.2,45.3l3.2,1.6l-1.9,2.9l2.9,1.5c0.5-1,1-2,1.5-3l2.7,1.7l1.5-2.8
			l-2.8-1.5L46,48.4L43.4,47l1.1-2.7l-2.7-1.4L40.2,45.3z M42.3,41.4c0.2-0.4,0.4-0.6,0.5-0.9c3.4-6.6,6.9-13.1,10.2-19.7
			c0.4-0.7,0.7-1.5,0.9-2.4c0.6-2.5,0.3-4.7-1.7-6.5c-1.9-1.7-4.3-2.9-6.8-3.3c-2.7-0.4-5.2,0.1-6.7,2.7c-0.8,1.4-1.7,2.9-2.5,4.4
			c-0.5,0.9-0.5,2.1,0.2,3c0.8,1,1.6,2,2.5,2.9c1.6,1.8,3.3,3.5,5,5.4c1.1,1.2,1.4,2.9,0.7,4.4c-0.5,1.1-1.1,2.2-1.7,3.2
			c-0.9,1.8-3.1,2.6-4.9,1.7c-0.3-0.2-0.6-0.4-0.9-0.6c-3.8-3.3-7.6-6.7-11.5-10c-1.4-1.1-2-2.9-1.5-4.7c0.8-3.1,1.8-6.1,2.6-9.2
			c0.5-1.9,0.8-3.9,1-5.9c0.2-1.3-0.7-2.4-2-2.6c-0.6-0.1-1.1,0.1-1.6,0.4c-0.8,0.5-1.5,1.2-2,2c-1.4,2.5-2.6,5-4,7.5
			c-2.9,5.8-6.1,11.7-9,17.6c-0.7,1.4-1,2.9-1.1,4.5c-0.1,2,1.9,3.9,4.3,4.6c1.7,0.5,3.2-0.1,4.6-2.1c0.7-1.1,1.4-2.3,2-3.4
			c1.4-2.6,4.6-3.7,7.2-2.3c0.1,0,0.2,0.1,0.3,0.1c2.7,1.2,3.9,4.4,2.6,7.1c0,0.1-0.1,0.1-0.1,0.2c-0.3,0.7-0.6,1.3-1,1.9
			c-1,1.5-0.9,2.7,0.4,4c1.7,1.7,1.8,3.8,0.7,6c-0.4,0.8-0.9,1.6-1.3,2.5c-1.3,2.4-2.9,3-5.3,1.7c-4.4-2.3-8.7-4.5-13.1-6.8
			c-0.6-0.3-1.2-0.5-1.9-0.6c-1.8-0.1-3.5,1-4,2.8s0.3,3.7,2,4.6c6,3.1,11.9,6.2,17.9,9.3c2.8,1.7,6.3,0.8,8-2
			c0.1-0.2,0.2-0.4,0.3-0.6c1.7-3.3,3.4-6.5,5.1-9.8c0.5-0.9,0.9-1.8,1.4-2.8l-6.8-3.5l4.3-8.2L42.3,41.4z"/>
	</g>
</g>
</svg>
