<?xml version="1.0" encoding="UTF-8"?>
<svg id="Road_Course_Surface" xmlns="http://www.w3.org/2000/svg" version="1.1" viewBox="0 0 368.46 522.75">
  <!-- Generator: Adobe Illustrator 29.6.0, SVG Export Plug-In . SVG Version: 2.1.1 Build 207)  -->
  <defs>
    <style>
      .st0 {
        fill: #4c5568;
      }
    </style>
  </defs>
  <path class="st0" d="M14.8,468.08l12.74-27.11s6.23-13.76,9.7-17.96c1.53-1.85,4.16-4.84,6.93-7.07,3.5-2.82,7.06-4.72,7.06-4.72l32.88-18.53,22.2-12.81s8.49-4.27,7.02-11.07-14.98-5.95-14.98-5.95l-12.67-.07-12.14.71s-4.52.6-8.85.7c-2.6.06-5.11-.17-6.57-.49-1.98-.43-4.19-1.3-5.73-2.73s-2.35-3.32-2.51-5.19c-.33-3.81.92-6.22,2.68-8.26,1.11-1.3,4.77-3.22,6.37-3.86s20.43-6.65,20.43-6.65l16.06-6.06s10.42-3.27,16.12-3.17c1.61.03,4.14.48,6.71,1.38,3.12,1.1,6.31,2.77,8.99,4.07,2.93,1.42,5.2,2.44,5.2,2.44,0,0,2.59.9,5.72,1.24,2.1.23,4.59.09,6.14-.24,1.7-.36,8.46-2.2,11.96-6.44,5.28-6.39,7.12-16.07,7.12-16.07l1.68-8.6,6.71-45.02,5.38-38.1,3.19-22.36,1.81-9.2,2.12-6.73,4.54-11,3.16-6.65,8.47-16.39,5.86-9.57,9.67-13.89,9.84-12.84,19.61-29.97,6.79-10.23,6.09-8.56,4.44-4.96,10.24-10.01,6.56-6.23,3.66-4.3,5.74-7.8,4.38-5.77,2.54-2.87s4.28-4.3,9.3-7.35c4.46-2.71,9.57-4.18,11.65-4.76,6.75-1.86,18.22-.91,23.16,1.89,7.78,4.41,9.39,7.43,11.66,11.5,3.8,6.81,4.08,17.13,2.99,20.49s-2.62,6.4-2.62,6.4l-4.48,6.61-4.88,5.87-6.76,6.61-12.47,11.7-13.15,12.47-6.09,9.94-8.85,14.93-5.05,10.48-11.61,25.14-11.76,24.7-8.4,18.17-11.97,25.68-9.58,20.36-2.82,6.06s-4.37,9.18-6.14,13.27c-1.45,2.84-2.67,5.76-4.01,8.67-5.92,12.18-17.28,36.84-17.28,36.84,0,0-5.41,11.61-8.25,17.45-.55,1.12-1.62,3.54-1.62,3.54l-3.17,6.7-5.79,12.39-75.86,162.23-6.56-2.49,77.8-165.37,4.54-9.66,1.8-3.53s2.41-5.47,3-6.5c-.67.72-3.61,3.49-5.49,5.22-3.69,3.22-6.74,7.09-9.8,10.91-1.06,1.25-3.11,3.83-3.11,3.83l-1.21,1.55-3.28-1.3-5.32-2.47s-1.62-.18-2.18.47-1.23,3.58-1.23,3.58l-1.08,3.86-3.55,7.8-4.27,8.59-.05.89.55.23-17.81,37.37-3.98,7.82-9.01,8.96,2.77-4.91,1.39-1.19,3.88-7.52.08-2.65.87-1.94,9.24-19.73,8.05-17.2,4.78-10.21,4.36-15.01.92-3.21,2.09-7.1,2.96,6.33s-.14.6,0,1.05.66,1.09.66,1.09l7.19,2.86,2.91-3.67s4.29-5.35,6.58-7.96c4.15-4.93,8.17-9.79,12.53-14.55,2.28-2.6,3.87-4.19,6.54-6.75,1.31-2.16,2.73-5.54,3.83-7.8,1.33-2.65,2.55-5.27,3.8-7.98,2.18-4.37,4.2-8.82,6.27-13.25,3.6-7.39,7.02-15.08,10.57-22.43,1.67-3.67,8.06-16.88,9.73-20.59.67-1.42,12.07-25.69,12.07-25.69l6-12.96s3.83-8.06,4.36-10.02-1.63-7.71-1.63-7.71l1.36-4.42s1.21,1.47,3.57,1.47c2.14,0,3.33-3.48,3.33-3.48l7.66-15.83,15.49-32.06,6.24-12.3,5.47-9.59,3.99-5.35,7.29-8.09,8.74-8.44,11.8-10.65,12.25-11.59,2.97-3.64s6.83-7.81,7.28-17.16c.38-8.03-4.26-17.99-12.15-22.48-8.44-4.81-18.29-4.09-26.24-.9-8.45,3.39-14.94,9.42-14.94,9.42l-2.53,2.54-4.03,5.42-7.58,10.19-5.7,5.55-12.53,12.2-8.8,11.19-2.6,3.3-6.35,9.76-18.39,28.16-11.79,15.23-9.3,13.27-11.91,21.36-6.52,14.02,3.11-2.61s5.69-4.75,13.73-8.51c6.95-3.25,13.67-4.61,19.33-4.71,1.07-.02,3.59-.12,6.62.3,3.61.51,7.97,1.71,11.69,3.7,6.25,3.34,10.81,10.32,10.81,10.32l-1.28,4.39s-3.67-7.63-9.99-11.48c-6.87-4.18-16.56-4.6-20.18-4.28-6.47.57-13.93,3.18-19.71,6.44-6.84,3.85-11.47,8.4-11.47,8.4l-3.62,3.62-2.61,3.65-1.81,5.32-1.88,8.39-3.16,22.8-5.28,38.12-3.97,29.58-1.56,9.79-3.37,16.97-.36,2.78-2.52,16.33-2.97-6.15s-3.34,6.48-12.92,9.18c-2.38.67-5.59,1.11-8.03,1-4.01-.17-6.82-1.28-6.82-1.28,0,0-2.25-.71-5.25-2.25-2.49-1.27-5.44-3.29-8.53-4.37s-6.65-1.46-8.49-1.48c-1.04,0-3.08.05-5.76.64-2.27.5-4.99,1.45-7.96,2.4-5.57,1.79-12.01,4.54-17.69,6.47-8.71,2.95-15.75,5.12-15.75,5.12,0,0-9.66,2.25-9.73,8.69-.03,2.44,1.22,5.04,4.79,5.85,5.85,1.33,15.22-.14,15.22-.14l12.92-.89,13.95.31,4.69.34s11.88.86,12.14,9.72-8.91,12.99-8.91,12.99l-22.4,12.92-33.02,18.71s-7.27,4.65-11.04,8.33c-3.77,3.68-10.43,18.51-10.43,18.51l-12.13,25.84s-.98,2.3-.73,5.42c.37,4.73,2.74,11.24,9.1,13.63,3.56,1.34,8.34,2.62,11.79,1.33,6.8-2.53,11.33-9.79,11.33-9.79l15.89-25.09s4.37-7.79,10.19-12.52c5.82-4.73,16.3-7.27,16.3-7.27l9.87-2.81s9.29-3.54,12.3-5.61c1.66-1.15,6.92-4.76,11.04-8.39,3.33-2.94,5.83-6.12,5.83-6.12l4.28-5.67,4.79-7.49,8.26-15.26,10.76-20.49,5.68-10.57,3.95-6.55,3.39.97-4.42,7.57-6.38,11.95-9.81,19.28-8.26,16.21-3.54,5.59-6.54,8.07s-3.68,4.06-8.18,7.75c-4,3.29-8.74,6.17-10.64,7.46-4.03,2.74-11.65,5.45-11.65,5.45l-10.44,2.89s-3.81.66-7.88,2.5c-2,.9-3.94,2.42-5.77,3.62-5.57,3.66-10.4,12.51-10.4,12.51l-15.85,25.22s-3.19,5.79-9.22,9.11c-4.68,2.58-11.68,3.5-18.37.51-8.06-3.6-10.18-9.58-11.29-12.52s-.76-7.52.32-9.81Z"/>
</svg>